# File created by Blade
# Date/Time:  Fri Jan 16 19:14:28 2015
# Frame Rate: 120.000 fps
#------------------------------------------------------
:FULLY-SPECIFIED
:DEGREES
349
root 18.934719 35.730986 -22.276068 -166.014297 -1.389034 -178.247277
Spine -26.967526 0.838043 -0.371706
Head 14.647847 -1.037361 1.739019
LeftShoulder -23.134980 -62.917189 66.908900
LeftArm 47.098851 -30.171093 6.914021
LeftForeArm 0.337896 0.000000 20.162428
LeftHand -1.351070 0.000000 -24.966838
LeftHandThumb1 -26.253704 0.000000 33.147579
RightShoulder -11.718464 19.567851 -44.405630
RightArm 35.505868 62.380280 -15.165847
RightForeArm -63.596175 -0.000000 38.612846
RightHand -10.811097 -0.000000 21.655733
RightHandThumb1 -24.326973 -0.000000 -32.862282
LeftUpLeg -4.186850 7.288055 0.438915
LeftLeg -7.580679 -0.000000 0.000000
LeftFoot -20.154807 28.245478 -15.570842
LeftToeBase 23.880575 -0.000000 -0.000000
RightUpLeg -6.023392 -9.501418 1.814115
RightLeg -3.792786 -0.000000 0.000000
RightFoot -19.705121 -22.501782 20.177937
RightToeBase 22.760559 -0.000000 -0.000000
350
root 18.933778 35.728420 -22.280931 -165.966737 -1.379329 -178.247012
Spine -26.977802 0.864346 -0.401555
Head 14.635316 -1.236380 1.675474
LeftShoulder -23.439797 -62.696986 66.938977
LeftArm 47.098832 -30.624537 6.708080
LeftForeArm 0.291895 -0.000000 20.798617
LeftHand -1.606136 -0.000000 -25.125829
LeftHandThumb1 -26.253704 0.000000 33.147579
RightShoulder -11.869568 19.578590 -44.386054
RightArm 35.718860 62.871781 -14.399248
RightForeArm -64.835106 -0.000000 40.046142
RightHand -10.733377 0.000000 23.046180
RightHandThumb1 -24.326973 -0.000000 -32.862282
LeftUpLeg -4.224769 7.271927 0.436116
LeftLeg -7.577564 -0.000000 0.000000
LeftFoot -20.175116 28.264362 -15.547318
LeftToeBase 23.868951 -0.000000 -0.000000
RightUpLeg -6.070188 -9.531356 1.824319
RightLeg -3.784080 -0.000000 0.000000
RightFoot -19.714887 -22.471946 20.136607
RightToeBase 22.789568 -0.000000 -0.000000
351
root 18.932557 35.725684 -22.285581 -165.913370 -1.370901 -178.253861
Spine -27.015809 0.894914 -0.420469
Head 14.647853 -1.267413 1.661607
LeftShoulder -23.538462 -62.430345 66.752316
LeftArm 47.018559 -31.192946 6.478224
LeftForeArm 0.450404 0.000000 21.741559
LeftHand -1.955781 -0.000000 -25.603724
LeftHandThumb1 -26.253704 0.000000 33.147579
RightShoulder -12.048440 19.584399 -44.418677
RightArm 36.076951 63.313537 -13.481936
RightForeArm -66.022735 0.000000 41.429829
RightHand -10.555808 -0.000000 24.027372
RightHandThumb1 -24.326973 -0.000000 -32.862282
LeftUpLeg -4.266785 7.260690 0.421563
LeftLeg -7.583267 -0.000000 0.000000
LeftFoot -20.186524 28.291541 -15.517263
LeftToeBase 23.880857 -0.000000 -0.000000
RightUpLeg -6.112475 -9.530644 1.823568
RightLeg -3.794256 -0.000000 0.000000
RightFoot -19.717922 -22.486630 20.095802
RightToeBase 22.796688 -0.000000 -0.000000
352
root 18.932480 35.722828 -22.291058 -165.868883 -1.362679 -178.256012
Spine -27.057275 0.937760 -0.433793
Head 14.672547 -1.270709 1.648264
LeftShoulder -23.515905 -62.128413 66.431402
LeftArm 46.912736 -31.884258 6.143103
LeftForeArm 1.079877 0.000000 23.022378
LeftHand -2.475559 -0.000000 -25.844667
LeftHandThumb1 -26.253704 0.000000 33.147579
RightShoulder -12.194222 19.621098 -44.459916
RightArm 36.427242 63.707313 -12.637936
RightForeArm -66.934551 -0.000000 42.835389
RightHand -10.480925 -0.000000 24.943829
RightHandThumb1 -24.326973 -0.000000 -32.862282
LeftUpLeg -4.295605 7.261445 0.414995
LeftLeg -7.592951 -0.000000 0.000000
LeftFoot -20.200494 28.301208 -15.492650
LeftToeBase 23.925278 -0.000000 -0.000000
RightUpLeg -6.146356 -9.530545 1.826014
RightLeg -3.798986 -0.000000 0.000000
RightFoot -19.735202 -22.483383 20.059915
RightToeBase 22.773397 -0.000000 -0.000000
